<svg width="182" height="50" viewBox="0 0 182 50" fill="none" xmlns="http://www.w3.org/2000/svg">
<g id="Group">
<path id="BG" d="M180.989 44.2337C180.989 46.8983 178.672 49.0566 175.806 49.0566H6.2002C3.33579 49.0566 1.01074 46.8983 1.01074 44.2337V5.77259C1.01074 3.10929 3.33579 0.94339 6.2002 0.94339H175.804C178.672 0.94339 180.987 3.10929 180.987 5.77259L180.989 44.2337Z" fill="black"/>
<path id="Border" d="M175.259 1.00156C178.38 1.00156 180.92 3.35625 180.92 6.25V43.75C180.92 46.6438 178.38 48.9984 175.259 48.9984H6.74074C3.61978 48.9984 1.0802 46.6438 1.0802 43.75V6.25C1.0802 3.35625 3.61978 1.00156 6.74074 1.00156H175.259ZM175.259 3.8147e-06H6.74074C3.03502 3.8147e-06 0 2.81407 0 6.25V43.75C0 47.1859 3.03502 50 6.74074 50H175.259C178.965 50 182 47.1859 182 43.75V6.25C182 2.81407 178.965 3.8147e-06 175.259 3.8147e-06Z" fill="#A6A6A6"/>
<g id="Icon">
<g id="Vector">
<path d="M40.6167 24.73C40.5776 20.7012 44.1745 18.7412 44.339 18.65C42.3019 15.8962 39.1446 15.52 38.035 15.49C35.3832 15.2312 32.811 16.9612 31.4601 16.9612C30.0823 16.9612 28.0021 15.515 25.7601 15.5575C22.8751 15.5987 20.1761 17.1475 18.6959 19.5525C15.6409 24.4562 17.9193 31.6625 20.8461 35.6262C22.3102 37.5675 24.021 39.735 26.2603 39.6587C28.4511 39.575 29.2694 38.3637 31.9131 38.3637C34.5326 38.3637 35.301 39.6587 37.5848 39.61C39.9359 39.575 41.4162 37.66 42.8291 35.7012C44.521 33.4762 45.2004 31.285 45.2274 31.1725C45.1721 31.155 40.6612 29.5587 40.6167 24.73Z" fill="white"/>
<path d="M36.3027 12.8825C37.4809 11.5162 38.2871 9.65749 38.0633 7.77124C36.3579 7.84124 34.2252 8.86499 32.997 10.2012C31.9104 11.3787 30.9397 13.3087 31.1905 15.1237C33.1062 15.2562 35.0732 14.2275 36.3027 12.8825Z" fill="white"/>
</g>
</g>
<g id="Download on the">
<path id="D" d="M66.1268 12.5112C66.1268 13.9825 65.6509 15.09 64.7004 15.8337C63.8201 16.52 62.569 16.8637 60.9485 16.8637C60.1451 16.8637 59.4575 16.8312 58.8818 16.7662V8.72749C59.6328 8.61499 60.4416 8.5575 61.3152 8.5575C62.8589 8.5575 64.0223 8.86874 64.807 9.49124C65.6859 10.195 66.1268 11.2012 66.1268 12.5112ZM64.6371 12.5475C64.6371 11.5937 64.3648 10.8625 63.8201 10.3525C63.2755 9.84374 62.48 9.58875 61.4325 9.58875C60.9876 9.58875 60.6088 9.61624 60.2947 9.67374V15.785C60.4686 15.81 60.7868 15.8212 61.2492 15.8212C62.3304 15.8212 63.1649 15.5425 63.7527 14.985C64.3405 14.4275 64.6371 13.615 64.6371 12.5475Z" fill="white"/>
<path id="o" d="M74.0252 13.7962C74.0252 14.7025 73.7461 15.445 73.188 16.0275C72.6029 16.6262 71.8277 16.925 70.8597 16.925C69.9268 16.925 69.184 16.6387 68.6299 16.0637C68.0772 15.49 67.8008 14.7662 67.8008 13.8937C67.8008 12.9812 68.0852 12.2325 68.6569 11.6512C69.2285 11.07 69.9969 10.7787 70.9649 10.7787C71.8978 10.7787 72.6474 11.065 73.215 11.6387C73.7542 12.1962 74.0252 12.9162 74.0252 13.7962ZM72.5598 13.8387C72.5598 13.295 72.433 12.8287 72.1809 12.44C71.8843 11.97 71.4624 11.735 70.9137 11.735C70.3461 11.735 69.9147 11.97 69.6181 12.44C69.3646 12.8287 69.2393 13.3025 69.2393 13.8625C69.2393 14.4062 69.366 14.8725 69.6181 15.2612C69.9241 15.7312 70.3501 15.9662 70.9002 15.9662C71.4394 15.9662 71.8628 15.7275 72.1674 15.2487C72.429 14.8525 72.5598 14.3825 72.5598 13.8387Z" fill="white"/>
<path id="w" d="M84.617 10.8987L82.6285 16.7912H81.3343L80.5106 14.2325C80.3016 13.5937 80.1317 12.9587 79.9996 12.3287H79.974C79.8513 12.9762 79.6815 13.61 79.4631 14.2325L78.5881 16.7912H77.2791L75.4092 10.8987H76.8611L77.5797 13.7C77.7536 14.3625 77.8965 14.9937 78.0111 15.5912H78.0367C78.1419 15.0987 78.3158 14.4712 78.5611 13.7125L79.4631 10.9H80.6144L81.4785 13.6525C81.6875 14.3237 81.8574 14.97 81.9881 15.5925H82.0272C82.123 14.9862 82.2672 14.34 82.4586 13.6525L83.2298 10.9H84.617V10.8987Z" fill="white"/>
<path id="n" d="M91.9406 16.7913H90.5278V13.4163C90.5278 12.3763 90.1018 11.8563 89.2471 11.8563C88.8278 11.8563 88.4894 11.9988 88.2265 12.285C87.9663 12.5713 87.8342 12.9088 87.8342 13.295V16.79H86.4213V12.5825C86.4213 12.065 86.4038 11.5038 86.3701 10.8963H87.6118L87.6778 11.8175H87.7169C87.8814 11.5313 88.1267 11.295 88.449 11.1063C88.8318 10.8863 89.2605 10.775 89.7297 10.775C90.3229 10.775 90.8163 10.9525 91.2086 11.3088C91.6966 11.745 91.9406 12.3963 91.9406 13.2613V16.7913Z" fill="white"/>
<path id="l" d="M95.8373 16.7912H94.4258V8.19499H95.8373V16.7912Z" fill="white"/>
<path id="o_2" d="M104.155 13.7962C104.155 14.7025 103.876 15.445 103.318 16.0275C102.733 16.6262 101.956 16.925 100.99 16.925C100.055 16.925 99.3125 16.6387 98.7598 16.0637C98.207 15.49 97.9307 14.7662 97.9307 13.8937C97.9307 12.9812 98.2151 12.2325 98.7867 11.6512C99.3584 11.07 100.127 10.7787 101.093 10.7787C102.028 10.7787 102.776 11.065 103.345 11.6387C103.884 12.1962 104.155 12.9162 104.155 13.7962ZM102.688 13.8387C102.688 13.295 102.562 12.8287 102.309 12.44C102.014 11.97 101.591 11.735 101.044 11.735C100.475 11.735 100.043 11.97 99.748 12.44C99.4945 12.8287 99.3691 13.3025 99.3691 13.8625C99.3691 14.4062 99.4959 14.8725 99.748 15.2612C100.054 15.7312 100.48 15.9662 101.03 15.9662C101.569 15.9662 101.991 15.7275 102.296 15.2487C102.559 14.8525 102.688 14.3825 102.688 13.8387Z" fill="white"/>
<path id="a" d="M110.993 16.7912H109.724L109.619 16.1125H109.58C109.146 16.6537 108.527 16.925 107.723 16.925C107.124 16.925 106.638 16.7462 106.273 16.3912C105.941 16.0687 105.775 15.6675 105.775 15.1912C105.775 14.4712 106.099 13.9225 106.75 13.5425C107.4 13.1625 108.314 12.9762 109.491 12.985V12.875C109.491 12.0987 109.051 11.7112 108.171 11.7112C107.544 11.7112 106.991 11.8575 106.514 12.1475L106.227 11.2875C106.818 10.9487 107.547 10.7787 108.407 10.7787C110.068 10.7787 110.901 11.5912 110.901 13.2162V15.3862C110.901 15.975 110.932 16.4437 110.993 16.7912ZM109.526 14.7662V13.8575C107.967 13.8325 107.188 14.2287 107.188 15.045C107.188 15.3525 107.277 15.5825 107.459 15.7362C107.641 15.89 107.873 15.9662 108.149 15.9662C108.46 15.9662 108.749 15.875 109.014 15.6937C109.279 15.5112 109.442 15.28 109.503 14.9962C109.518 14.9325 109.526 14.855 109.526 14.7662Z" fill="white"/>
<path id="d" d="M119.022 16.7912H117.768L117.702 15.845H117.663C117.262 16.565 116.58 16.925 115.622 16.925C114.856 16.925 114.218 16.6462 113.713 16.0887C113.207 15.5312 112.955 14.8075 112.955 13.9187C112.955 12.965 113.229 12.1925 113.779 11.6025C114.311 11.0525 114.964 10.7775 115.74 10.7775C116.594 10.7775 117.191 11.0437 117.531 11.5775H117.558V8.19499H118.972V15.2037C118.972 15.7775 118.988 16.3062 119.022 16.7912ZM117.558 14.3062V13.3237C117.558 13.1537 117.544 13.0162 117.519 12.9112C117.439 12.5962 117.268 12.3312 117.008 12.1175C116.745 11.9037 116.428 11.7962 116.063 11.7962C115.535 11.7962 115.123 11.99 114.82 12.3787C114.519 12.7675 114.367 13.2637 114.367 13.87C114.367 14.4525 114.511 14.925 114.801 15.2887C115.107 15.6762 115.519 15.87 116.036 15.87C116.499 15.87 116.87 15.7087 117.152 15.385C117.424 15.0862 117.558 14.7262 117.558 14.3062Z" fill="white"/>
<path id="o_3" d="M131.105 13.7962C131.105 14.7025 130.826 15.445 130.268 16.0275C129.683 16.6262 128.909 16.925 127.94 16.925C127.008 16.925 126.265 16.6387 125.71 16.0637C125.157 15.49 124.881 14.7662 124.881 13.8937C124.881 12.9812 125.165 12.2325 125.737 11.6512C126.309 11.07 127.077 10.7787 128.046 10.7787C128.978 10.7787 129.729 11.065 130.295 11.6387C130.834 12.1962 131.105 12.9162 131.105 13.7962ZM129.641 13.8387C129.641 13.295 129.514 12.8287 129.262 12.44C128.964 11.97 128.544 11.735 127.994 11.735C127.428 11.735 126.996 11.97 126.698 12.44C126.445 12.8287 126.319 13.3025 126.319 13.8625C126.319 14.4062 126.446 14.8725 126.698 15.2612C127.004 15.7312 127.43 15.9662 127.98 15.9662C128.52 15.9662 128.944 15.7275 129.249 15.2487C129.509 14.8525 129.641 14.3825 129.641 13.8387Z" fill="white"/>
<path id="n_2" d="M138.702 16.7913H137.29V13.4163C137.29 12.3763 136.864 11.8563 136.008 11.8563C135.589 11.8563 135.251 11.9988 134.989 12.285C134.728 12.5713 134.597 12.9088 134.597 13.295V16.79H133.183V12.5825C133.183 12.065 133.167 11.5038 133.133 10.8963H134.373L134.439 11.8175H134.478C134.644 11.5313 134.889 11.295 135.21 11.1063C135.595 10.8863 136.022 10.775 136.492 10.775C137.084 10.775 137.578 10.9525 137.97 11.3088C138.459 11.745 138.702 12.3963 138.702 13.2613V16.7913Z" fill="white"/>
<path id="t" d="M148.21 11.88H146.655V14.7425C146.655 15.47 146.931 15.8337 147.478 15.8337C147.732 15.8337 147.942 15.8137 148.108 15.7725L148.144 16.7662C147.865 16.8637 147.499 16.9125 147.047 16.9125C146.489 16.9125 146.055 16.755 145.741 16.44C145.425 16.125 145.269 15.595 145.269 14.8512V11.88H144.34V10.8987H145.269V9.81874L146.653 9.43124V10.8975H148.209V11.88H148.21Z" fill="white"/>
<path id="h" d="M155.689 16.7912H154.275V13.4412C154.275 12.385 153.849 11.8562 152.996 11.8562C152.34 11.8562 151.893 12.1625 151.648 12.775C151.606 12.9037 151.581 13.0612 151.581 13.2462V16.79H150.17V8.19499H151.581V11.7462H151.608C152.053 11.1 152.691 10.7775 153.517 10.7775C154.102 10.7775 154.586 10.955 154.971 11.3112C155.449 11.755 155.689 12.415 155.689 13.2875V16.7912Z" fill="white"/>
<path id="e" d="M163.405 13.5662C163.405 13.8012 163.386 13.9987 163.352 14.16H159.115C159.134 14.7425 159.336 15.1862 159.729 15.4937C160.087 15.7687 160.55 15.9062 161.116 15.9062C161.743 15.9062 162.314 15.8137 162.829 15.6275L163.05 16.5375C162.448 16.78 161.739 16.9012 160.918 16.9012C159.933 16.9012 159.158 16.6325 158.597 16.095C158.034 15.5575 157.755 14.8362 157.755 13.9312C157.755 13.0425 158.015 12.3025 158.54 11.7125C159.087 11.0825 159.827 10.7675 160.761 10.7675C161.675 10.7675 162.37 11.0825 162.839 11.7125C163.218 12.2125 163.405 12.8312 163.405 13.5662ZM162.057 13.2275C162.068 12.8387 161.975 12.5037 161.783 12.2212C161.538 11.8575 161.164 11.675 160.659 11.675C160.198 11.675 159.822 11.8525 159.534 12.2087C159.3 12.4925 159.161 12.8312 159.115 13.2275H162.057Z" fill="white"/>
</g>
<g id="App Store">
<path id="A" d="M72.3212 39.38H69.2596L67.5825 34.4937H61.7531L60.1556 39.38H57.1748L62.9503 22.745H66.5175L72.3212 39.38ZM67.077 32.4437L65.5603 28.1C65.3999 27.6562 65.0992 26.6112 64.6557 24.9662H64.6017C64.4251 25.6737 64.1407 26.7187 63.7497 28.1L62.26 32.4437H67.077Z" fill="white"/>
<path id="p" d="M87.1741 33.235C87.1741 35.275 86.5795 36.8875 85.3905 38.0713C84.3254 39.125 83.0029 39.6513 81.4242 39.6513C79.7201 39.6513 78.496 39.0838 77.7505 37.9488H77.6966V44.2675H74.8223V31.3338C74.8223 30.0513 74.7859 28.735 74.7158 27.385H77.2436L77.404 29.2863H77.458C78.4165 27.8538 79.8711 27.1388 81.8233 27.1388C83.3494 27.1388 84.6234 27.6975 85.6426 28.8163C86.6645 29.9363 87.1741 31.4088 87.1741 33.235ZM84.2459 33.3325C84.2459 32.165 83.9628 31.2025 83.3938 30.445C82.7724 29.655 81.9378 29.26 80.8917 29.26C80.1826 29.26 79.5381 29.48 78.9625 29.9138C78.3855 30.3513 78.008 30.9225 77.8314 31.63C77.7424 31.96 77.6979 32.23 77.6979 32.4425V34.4425C77.6979 35.315 77.9864 36.0513 78.5634 36.6525C79.1404 37.2538 79.89 37.5538 80.8121 37.5538C81.8947 37.5538 82.7373 37.1663 83.3399 36.3938C83.9439 35.62 84.2459 34.6 84.2459 33.3325Z" fill="white"/>
<path id="p_2" d="M102.054 33.235C102.054 35.275 101.459 36.8875 100.269 38.0713C99.2049 39.125 97.8824 39.6513 96.3037 39.6513C94.5997 39.6513 93.3755 39.0838 92.6314 37.9488H92.5774V44.2675H89.7032V31.3338C89.7032 30.0513 89.6668 28.735 89.5967 27.385H92.1245L92.2849 29.2863H92.3388C93.296 27.8538 94.7507 27.1388 96.7041 27.1388C98.2289 27.1388 99.5029 27.6975 100.525 28.8163C101.543 29.9363 102.054 31.4088 102.054 33.235ZM99.1254 33.3325C99.1254 32.165 98.8409 31.2025 98.272 30.445C97.6505 29.655 96.8187 29.26 95.7712 29.26C95.0607 29.26 94.4177 29.48 93.8407 29.9138C93.2636 30.3513 92.8875 30.9225 92.7109 31.63C92.6233 31.96 92.5774 32.23 92.5774 32.4425V34.4425C92.5774 35.315 92.8659 36.0513 93.4402 36.6525C94.0173 37.2525 94.7668 37.5538 95.6917 37.5538C96.7742 37.5538 97.6168 37.1663 98.2194 36.3938C98.8234 35.62 99.1254 34.6 99.1254 33.3325Z" fill="white"/>
<path id="S" d="M118.69 34.715C118.69 36.13 118.16 37.2813 117.096 38.17C115.928 39.1413 114.3 39.6263 112.209 39.6263C110.279 39.6263 108.731 39.2813 107.56 38.59L108.226 36.3688C109.487 37.0763 110.872 37.4313 112.381 37.4313C113.463 37.4313 114.306 37.2038 114.911 36.7513C115.514 36.2988 115.814 35.6913 115.814 34.9338C115.814 34.2588 115.566 33.69 115.069 33.2288C114.574 32.7675 113.748 32.3388 112.594 31.9425C109.452 30.8563 107.883 29.265 107.883 27.1725C107.883 25.805 108.433 24.6838 109.535 23.8113C110.632 22.9375 112.096 22.5013 113.927 22.5013C115.559 22.5013 116.916 22.765 117.998 23.2913L117.28 25.4638C116.269 24.9538 115.125 24.6988 113.846 24.6988C112.835 24.6988 112.045 24.93 111.479 25.39C111 25.8013 110.76 26.3025 110.76 26.8963C110.76 27.5538 111.034 28.0975 111.584 28.525C112.062 28.92 112.932 29.3475 114.194 29.8088C115.737 30.385 116.871 31.0588 117.601 31.8313C118.327 32.6013 118.69 33.565 118.69 34.715Z" fill="white"/>
<path id="t_2" d="M128.193 29.385H125.025V35.2087C125.025 36.69 125.583 37.43 126.702 37.43C127.216 37.43 127.642 37.3887 127.979 37.3062L128.058 39.33C127.492 39.5262 126.746 39.625 125.823 39.625C124.688 39.625 123.801 39.3037 123.16 38.6625C122.523 38.02 122.202 36.9425 122.202 35.4287V29.3825H120.314V27.3825H122.202V25.1862L125.025 24.3962V27.3825H128.193V29.385Z" fill="white"/>
<path id="o_4" d="M142.487 33.2837C142.487 35.1275 141.918 36.6412 140.783 37.825C139.592 39.0437 138.012 39.6512 136.043 39.6512C134.144 39.6512 132.633 39.0675 131.506 37.9C130.379 36.7325 129.815 35.2587 129.815 33.4825C129.815 31.6237 130.395 30.1012 131.559 28.9175C132.719 27.7325 134.286 27.14 136.256 27.14C138.154 27.14 139.681 27.7237 140.834 28.8925C141.937 30.0262 142.487 31.49 142.487 33.2837ZM139.505 33.37C139.505 32.2637 139.25 31.315 138.733 30.5237C138.131 29.5662 137.269 29.0887 136.153 29.0887C134.998 29.0887 134.12 29.5675 133.517 30.5237C133.001 31.3162 132.746 32.28 132.746 33.42C132.746 34.5262 133.001 35.475 133.517 36.265C134.139 37.2225 135.007 37.7 136.127 37.7C137.225 37.7 138.086 37.2125 138.708 36.24C139.238 35.4337 139.505 34.475 139.505 33.37Z" fill="white"/>
<path id="r" d="M151.83 29.7288C151.545 29.68 151.242 29.655 150.924 29.655C149.913 29.655 149.131 30.0088 148.581 30.7175C148.102 31.3425 147.862 32.1325 147.862 33.0863V39.38H144.989L145.016 31.1625C145.016 29.78 144.98 28.5213 144.908 27.3863H147.412L147.517 29.6813H147.596C147.9 28.8925 148.378 28.2575 149.034 27.7813C149.674 27.3525 150.366 27.1388 151.111 27.1388C151.377 27.1388 151.617 27.1563 151.83 27.1875V29.7288Z" fill="white"/>
<path id="e_2" d="M164.684 32.815C164.684 33.2925 164.651 33.695 164.579 34.0237H155.957C155.99 35.2087 156.407 36.115 157.208 36.74C157.934 37.2987 158.874 37.5787 160.028 37.5787C161.305 37.5787 162.469 37.39 163.517 37.0112L163.967 38.8612C162.743 39.3562 161.298 39.6025 159.63 39.6025C157.624 39.6025 156.05 39.055 154.904 37.9612C153.76 36.8675 153.188 35.3987 153.188 33.5562C153.188 31.7475 153.72 30.2412 154.786 29.04C155.903 27.7575 157.411 27.1162 159.309 27.1162C161.174 27.1162 162.585 27.7575 163.544 29.04C164.303 30.0587 164.684 31.3187 164.684 32.815ZM161.944 32.1237C161.963 31.3337 161.775 30.6512 161.386 30.075C160.888 29.3337 160.124 28.9637 159.095 28.9637C158.155 28.9637 157.391 29.325 156.807 30.05C156.329 30.6262 156.044 31.3175 155.957 32.1225H161.944V32.1237Z" fill="white"/>
</g>
</g>
</svg>
