<svg width="198" height="241" viewBox="0 0 198 241" fill="none" xmlns="http://www.w3.org/2000/svg">
<path id="Vector" d="M85.4339 4.06961C83.8765 6.59932 78.2306 25.6694 72.7794 46.4909C63.0451 85.0203 57.9833 116.934 59.3461 133.085C59.7354 137.95 59.9301 141.841 59.7354 141.841C59.7354 141.841 49.2224 131.528 36.7625 118.685C12.2321 93.9715 5.8075 89.1067 2.10847 92.804C-1.97993 96.8904 -0.0330739 113.042 7.1703 132.112C10.8693 142.231 18.4621 162.857 24.108 177.841C38.32 216.371 44.3553 229.019 49.6118 231.549C52.1427 232.522 56.8151 234.857 59.9301 236.608C68.691 241.473 119.309 242.641 139.946 238.36C154.158 235.635 193.679 221.819 196.794 218.706C197.573 217.927 198.157 186.209 197.962 148.068C197.768 43.7666 196.015 41.4315 159.804 95.1391C141.114 122.771 138.973 125.301 137.999 122.188C137.415 120.631 134.689 110.707 131.964 100.004C123.203 66.9231 103.929 10.2966 99.646 4.84798C94.7789 -1.379 89.133 -1.57359 85.4339 4.06961ZM105.681 78.5987C113.079 101.171 124.955 132.112 128.265 137.171C132.548 143.593 139.362 143.204 145.202 136.198C147.928 132.89 156.3 120.047 163.892 107.398C171.68 94.7499 179.662 82.296 181.803 79.5717L185.697 74.7068L184.334 90.2743C183.75 98.8364 182.971 126.663 182.971 151.96L182.582 198.079L174.795 197.106C170.512 196.522 150.459 196.911 130.017 197.884C89.5223 200.025 78.2306 202.554 61.877 213.646C57.0098 216.954 52.5321 219.679 52.3374 219.679C49.4171 219.679 19.0461 124.523 21.1877 122.382C22.5505 121.215 36.5678 136.393 50.5852 154.101C60.3195 166.166 67.1335 169.474 72.1953 164.609C74.5315 162.079 75.505 154.879 76.6731 131.723C78.2306 101.171 81.3455 80.35 88.5489 49.4098L92.6373 31.8964L96.9204 48.4368C99.2566 57.5827 103.15 71.0096 105.681 78.5987ZM158.636 208.976C164.866 209.754 170.317 211.116 171.096 212.089C172.653 214.619 151.822 223.376 136.247 226.684C115.221 231.16 68.691 230.187 68.691 225.516C68.691 223.376 86.9914 214.814 97.8938 211.895C102.761 210.533 112.301 208.781 119.309 208.003C131.769 206.641 136.247 206.641 158.636 208.976Z" fill="#0179FE"/>
</svg>
