<svg width="120" height="121" viewBox="0 0 120 121" fill="none" xmlns="http://www.w3.org/2000/svg">
<rect x="2" y="2.63086" width="116" height="116" fill="#E9F4FF"/>
<rect x="2" y="2.63086" width="116" height="116" stroke="#0179FE" stroke-width="4" stroke-dasharray="22 22"/>
<path d="M92.3876 49.017C97.1366 46.0469 100 42.0039 100 37.4041C99.9922 27.8419 87.7305 20.6309 71.4888 20.6309H54.2497V30.9536H71.4888C82.3257 30.9536 88.9582 35.1305 88.9582 37.4041C88.9582 39.6778 82.3218 43.8566 71.4888 43.8566H48.4975C32.25 43.8566 20 51.0676 20 60.6318C20 65.2296 22.8537 69.2726 27.6124 72.2428C22.8537 75.2149 20 79.2578 20 83.8576C20 93.4199 32.2539 100.631 48.4975 100.631H65.7385V90.3081H48.4975C37.6626 90.3081 31.0301 86.1313 31.0301 83.8576C31.0301 81.5839 37.6665 77.4051 48.4975 77.4051H71.4888C87.7383 77.4051 99.9863 70.1941 99.9863 60.6318C99.9922 56.0321 97.1366 51.9891 92.3876 49.017ZM71.4888 67.0823H48.4975C37.6626 67.0823 31.0301 62.9055 31.0301 60.6318C31.0301 58.3581 37.6665 54.1794 48.4975 54.1794H71.4888C82.3257 54.1794 88.9582 58.3562 88.9582 60.6318C88.9582 62.9075 82.3257 67.0823 71.4888 67.0823Z" fill="black"/>
<mask id="mask0_163_1906" style="mask-type:alpha" maskUnits="userSpaceOnUse" x="20" y="20" width="80" height="81">
<path d="M92.3876 49.017C97.1366 46.0469 100 42.0039 100 37.4041C99.9922 27.8419 87.7305 20.6309 71.4888 20.6309H54.2497V30.9536H71.4888C82.3257 30.9536 88.9582 35.1305 88.9582 37.4041C88.9582 39.6778 82.3218 43.8566 71.4888 43.8566H48.4975C32.25 43.8566 20 51.0676 20 60.6318C20 65.2296 22.8537 69.2726 27.6124 72.2428C22.8537 75.2149 20 79.2578 20 83.8576C20 93.4199 32.2539 100.631 48.4975 100.631H65.7385V90.3081H48.4975C37.6626 90.3081 31.0301 86.1313 31.0301 83.8576C31.0301 81.5839 37.6665 77.4051 48.4975 77.4051H71.4888C87.7383 77.4051 99.9863 70.1941 99.9863 60.6318C99.9922 56.0321 97.1366 51.9891 92.3876 49.017ZM71.4888 67.0823H48.4975C37.6626 67.0823 31.0301 62.9055 31.0301 60.6318C31.0301 58.3581 37.6665 54.1794 48.4975 54.1794H71.4888C82.3257 54.1794 88.9582 58.3562 88.9582 60.6318C88.9582 62.9075 82.3257 67.0823 71.4888 67.0823Z" fill="black"/>
</mask>
<g mask="url(#mask0_163_1906)">
<rect x="35.6863" y="4.16016" width="86.2745" height="46.2745" fill="#0179FE"/>
<ellipse cx="56.8627" cy="60.2388" rx="42.3529" ry="20" fill="black"/>
</g>
</svg>
