<svg width="182" height="50" viewBox="0 0 182 50" fill="none" xmlns="http://www.w3.org/2000/svg">
<g id="Group">
<path id="BG" d="M175.259 50H6.74074C3.03502 50 0 47.1859 0 43.75V6.25C0 2.81406 3.03502 0 6.74074 0H175.259C178.965 0 182 2.81406 182 6.25V43.75C182 47.1859 178.965 50 175.259 50Z" fill="black"/>
<path id="Border" d="M175.259 1.00156C178.38 1.00156 180.92 3.35625 180.92 6.25V43.75C180.92 46.6438 178.38 48.9984 175.259 48.9984H6.74074C3.61978 48.9984 1.0802 46.6438 1.0802 43.75V6.25C1.0802 3.35625 3.61978 1.00156 6.74074 1.00156H175.259ZM175.259 0H6.74074C3.03502 0 0 2.81406 0 6.25V43.75C0 47.1859 3.03502 50 6.74074 50H175.259C178.965 50 182 47.1859 182 43.75V6.25C182 2.81406 178.965 0 175.259 0Z" fill="#A6A6A6"/>
<g id="Icon">
<path id="Vector" d="M14.0676 9.42343C13.6716 9.80781 13.4424 10.4062 13.4424 11.1812V38.825C13.4424 39.6 13.6716 40.1984 14.0676 40.5828L14.1653 40.6672L30.8722 25.1828V24.8172L14.1653 9.33281L14.0676 9.42343Z" fill="url(#paint0_linear_310_67)"/>
<path id="Vector_2" d="M36.4349 30.3469L30.8721 25.1828V24.8172L36.4416 19.6531L36.5663 19.7203L43.1621 23.2C45.0445 24.1875 45.0445 25.8125 43.1621 26.8062L36.5663 30.2797L36.4349 30.3469Z" fill="url(#paint1_linear_310_67)"/>
<path id="Vector_3" d="M36.5663 30.2797L30.872 25L14.0674 40.5828C14.6926 41.1922 15.7121 41.2656 16.8715 40.6562L36.5663 30.2797Z" fill="url(#paint2_linear_310_67)"/>
<path id="Vector_4" d="M36.5663 19.7203L16.8715 9.34376C15.7121 8.74063 14.6926 8.81407 14.0674 9.42344L30.872 25L36.5663 19.7203Z" fill="url(#paint3_linear_310_67)"/>
</g>
<g id="GET IT ON">
<path id="G" d="M63.9255 12.8047C63.9255 13.8484 63.5885 14.6844 62.9245 15.3078C62.1612 16.0469 61.1669 16.4187 59.9485 16.4187C58.784 16.4187 57.7898 16.0406 56.9741 15.2953C56.1568 14.5391 55.749 13.6109 55.749 12.5C55.749 11.3891 56.1568 10.4609 56.9741 9.71094C57.7898 8.95938 58.784 8.58125 59.9485 8.58125C60.5282 8.58125 61.0809 8.69219 61.6084 8.89844C62.1342 9.10625 62.5622 9.3875 62.8723 9.73438L62.1679 10.3938C61.6269 9.80157 60.8905 9.50938 59.9485 9.50938C59.0992 9.50938 58.3627 9.78438 57.7375 10.3391C57.1191 10.8953 56.809 11.6156 56.809 12.5C56.809 13.3844 57.1191 14.1109 57.7375 14.6672C58.3627 15.2156 59.0992 15.4969 59.9485 15.4969C60.8501 15.4969 61.6084 15.2156 62.2067 14.6609C62.601 14.2938 62.8251 13.7875 62.8841 13.1406H59.9485V12.2375H63.8649C63.9121 12.4328 63.9255 12.6219 63.9255 12.8047Z" fill="white" stroke="white" stroke-width="0.16" stroke-miterlimit="10"/>
<path id="E" d="M70.1392 9.67342H66.4604V12.0484H69.7768V12.9515H66.4604V15.3265H70.1392V16.2469H65.4189V8.75311H70.1392V9.67342Z" fill="white" stroke="white" stroke-width="0.16" stroke-miterlimit="10"/>
<path id="T" d="M74.5235 16.2469H73.482V9.67342H71.2256V8.75311H76.7816V9.67342H74.5235V16.2469Z" fill="white" stroke="white" stroke-width="0.16" stroke-miterlimit="10"/>
<path id="I" d="M80.8027 16.2469V8.75311H81.8425V16.2469H80.8027Z" fill="white" stroke="white" stroke-width="0.16" stroke-miterlimit="10"/>
<path id="T_2" d="M86.4512 16.2469H85.4182V9.67342H83.1533V8.75311H88.7161V9.67342H86.4512V16.2469Z" fill="white" stroke="white" stroke-width="0.16" stroke-miterlimit="10"/>
<path id="O" d="M99.2356 15.2828C98.4385 16.0406 97.451 16.4187 96.273 16.4187C95.0883 16.4187 94.1008 16.0406 93.3037 15.2828C92.5083 14.5266 92.1123 13.5984 92.1123 12.5C92.1123 11.4016 92.5083 10.4734 93.3037 9.71719C94.1008 8.95938 95.0883 8.58125 96.273 8.58125C97.4442 8.58125 98.4318 8.95938 99.2288 9.72344C100.031 10.4859 100.427 11.4078 100.427 12.5C100.427 13.5984 100.031 14.5266 99.2356 15.2828ZM94.0739 14.6547C94.6738 15.2156 95.4035 15.4969 96.273 15.4969C97.1358 15.4969 97.8723 15.2156 98.4655 14.6547C99.0637 14.0938 99.367 13.3734 99.367 12.5C99.367 11.6266 99.0637 10.9063 98.4655 10.3453C97.8723 9.78438 97.1358 9.50313 96.273 9.50313C95.4035 9.50313 94.6738 9.78438 94.0739 10.3453C93.4756 10.9063 93.1723 11.6266 93.1723 12.5C93.1723 13.3734 93.4756 14.0938 94.0739 14.6547Z" fill="white" stroke="white" stroke-width="0.16" stroke-miterlimit="10"/>
<path id="N" d="M101.888 16.2469V8.75311H103.152L107.081 14.5812H107.127L107.081 13.1406V8.75311H108.121V16.2469H107.036L102.921 10.1312H102.875L102.921 11.5781V16.2469H101.888Z" fill="white" stroke="white" stroke-width="0.16" stroke-miterlimit="10"/>
</g>
<g id="Google Play">
<path id="Google Play_2" d="M91.8562 27.1906C88.6897 27.1906 86.103 29.425 86.103 32.5078C86.103 35.5656 88.6897 37.8235 91.8562 37.8235C95.0294 37.8235 97.6162 35.5656 97.6162 32.5078C97.6162 29.425 95.0294 27.1906 91.8562 27.1906ZM91.8562 35.7297C90.1188 35.7297 88.624 34.4 88.624 32.5078C88.624 30.5906 90.1188 29.2844 91.8562 29.2844C93.5936 29.2844 95.0951 30.5906 95.0951 32.5078C95.0951 34.4 93.5936 35.7297 91.8562 35.7297ZM79.3032 27.1906C76.13 27.1906 73.55 29.425 73.55 32.5078C73.55 35.5656 76.13 37.8235 79.3032 37.8235C82.4748 37.8235 85.0565 35.5656 85.0565 32.5078C85.0565 29.425 82.4748 27.1906 79.3032 27.1906ZM79.3032 35.7297C77.5641 35.7297 76.0643 34.4 76.0643 32.5078C76.0643 30.5906 77.5641 29.2844 79.3032 29.2844C81.0407 29.2844 82.5354 30.5906 82.5354 32.5078C82.5354 34.4 81.0407 35.7297 79.3032 35.7297ZM64.3658 28.8203V31.0797H70.1847C70.0145 32.3422 69.5595 33.2703 68.8618 33.9172C68.0125 34.6985 66.6896 35.5656 64.3658 35.5656C60.7848 35.5656 57.9806 32.886 57.9806 29.5656C57.9806 26.2453 60.7848 23.5656 64.3658 23.5656C66.302 23.5656 67.7109 24.2672 68.7506 25.1766L70.4678 23.5844C69.0135 22.2969 67.0789 21.3078 64.3658 21.3078C59.4551 21.3078 55.3281 25.0125 55.3281 29.5656C55.3281 34.1188 59.4551 37.8235 64.3658 37.8235C67.0199 37.8235 69.0135 37.0172 70.5807 35.5047C72.1867 34.0156 72.6872 31.9219 72.6872 30.2313C72.6872 29.7063 72.64 29.2235 72.5558 28.8203H64.3658ZM125.447 30.5719C124.973 29.3828 123.512 27.1906 120.536 27.1906C117.587 27.1906 115.132 29.3453 115.132 32.5078C115.132 35.486 117.562 37.8235 120.819 37.8235C123.453 37.8235 124.973 36.3344 125.599 35.4672L123.644 34.2594C122.992 35.1438 122.104 35.7297 120.819 35.7297C119.544 35.7297 118.629 35.1875 118.042 34.1188L125.712 31.1766L125.447 30.5719ZM117.628 32.3422C117.562 30.2922 119.345 29.2422 120.622 29.2422C121.623 29.2422 122.473 29.7063 122.756 30.3703L117.628 32.3422ZM111.394 37.5H113.915V21.875H111.394V37.5ZM107.266 28.375H107.181C106.615 27.7531 105.535 27.1906 104.166 27.1906C101.295 27.1906 98.6694 29.5281 98.6694 32.525C98.6694 35.5047 101.295 37.8235 104.166 37.8235C105.535 37.8235 106.615 37.2563 107.181 36.6156H107.266V37.3781C107.266 39.411 106.094 40.5031 104.205 40.5031C102.665 40.5031 101.709 39.4719 101.315 38.6047L99.1227 39.4531C99.7546 40.8625 101.428 42.5969 104.205 42.5969C107.161 42.5969 109.655 40.9844 109.655 37.061V27.5141H107.266V28.375ZM104.382 35.7297C102.645 35.7297 101.19 34.3813 101.19 32.525C101.19 30.6516 102.645 29.2844 104.382 29.2844C106.094 29.2844 107.444 30.6516 107.444 32.525C107.444 34.3813 106.094 35.7297 104.382 35.7297ZM137.25 21.875H131.22V37.5H133.735V31.5797H137.25C140.042 31.5797 142.781 29.7063 142.781 26.7266C142.781 23.7485 140.036 21.875 137.25 21.875ZM137.316 29.4063H133.735V24.0485H137.316C139.193 24.0485 140.265 25.4938 140.265 26.7266C140.265 27.936 139.193 29.4063 137.316 29.4063ZM152.858 27.161C151.042 27.161 149.152 27.9047 148.376 29.5531L150.607 30.4203C151.087 29.5531 151.97 29.2719 152.904 29.2719C154.208 29.2719 155.531 29.9985 155.551 31.2813V31.4453C155.096 31.2016 154.122 30.8406 152.924 30.8406C150.521 30.8406 148.072 32.0672 148.072 34.3563C148.072 36.45 150.041 37.7985 152.253 37.7985C153.945 37.7985 154.879 37.0906 155.465 36.2672H155.551V37.475H157.979V31.4813C157.979 28.711 155.748 27.161 152.858 27.161ZM152.555 35.7235C151.732 35.7235 150.587 35.3453 150.587 34.4C150.587 33.1906 152.016 32.7266 153.253 32.7266C154.36 32.7266 154.879 32.9531 155.551 33.2516C155.354 34.6985 154.011 35.7235 152.555 35.7235ZM166.827 27.5031L163.937 34.2766H163.851L160.863 27.5031H158.151L162.641 36.9688L160.079 42.236H162.706L169.624 27.5031H166.827ZM144.163 37.5H146.684V21.875H144.163V37.5Z" fill="white"/>
</g>
</g>
<defs>
<linearGradient id="paint0_linear_310_67" x1="29.3889" y1="39.1129" x2="8.47066" y2="16.5522" gradientUnits="userSpaceOnUse">
<stop stop-color="#00A0FF"/>
<stop offset="0.0066" stop-color="#00A1FF"/>
<stop offset="0.2601" stop-color="#00BEFF"/>
<stop offset="0.5122" stop-color="#00D2FF"/>
<stop offset="0.7604" stop-color="#00DFFF"/>
<stop offset="1" stop-color="#00E3FF"/>
</linearGradient>
<linearGradient id="paint1_linear_310_67" x1="45.6133" y1="24.9982" x2="12.9923" y2="24.9982" gradientUnits="userSpaceOnUse">
<stop stop-color="#FFE000"/>
<stop offset="0.4087" stop-color="#FFBD00"/>
<stop offset="0.7754" stop-color="#FFA500"/>
<stop offset="1" stop-color="#FF9C00"/>
</linearGradient>
<linearGradient id="paint2_linear_310_67" x1="33.4699" y1="22.1299" x2="5.10313" y2="-8.46423" gradientUnits="userSpaceOnUse">
<stop stop-color="#FF3A44"/>
<stop offset="1" stop-color="#C31162"/>
</linearGradient>
<linearGradient id="paint3_linear_310_67" x1="9.8373" y1="49.7798" x2="22.5044" y2="36.1182" gradientUnits="userSpaceOnUse">
<stop stop-color="#32A071"/>
<stop offset="0.0685" stop-color="#2DA771"/>
<stop offset="0.4762" stop-color="#15CF74"/>
<stop offset="0.8009" stop-color="#06E775"/>
<stop offset="1" stop-color="#00F076"/>
</linearGradient>
</defs>
</svg>
