<svg width="87" height="74" viewBox="0 0 87 74" fill="none" xmlns="http://www.w3.org/2000/svg">
<g id="Vector" opacity="0.5" filter="url(#filter0_f_188_1525)">
<path d="M67.141 40.2922C71.0297 40.0348 74.1156 38.5 75.6296 35.6823C78.7723 29.8219 73.6296 21.3711 63.6738 16.0285L53.1067 10.3578L49.7089 16.6815L60.2761 22.3521C66.9189 25.9169 69.6096 30.6573 68.8612 32.0501C68.1129 33.443 62.6694 33.8198 56.029 30.2564L41.9359 22.6936C31.9765 17.349 22.094 17.7369 18.9459 23.5958C17.4325 26.4124 17.851 29.8278 19.7904 33.2126C15.8951 33.468 12.8151 35.006 11.3011 37.8237C8.15366 43.6815 13.2916 52.1298 23.2485 57.473L33.8169 63.1443L37.2147 56.8207L26.6463 51.1494C20.0047 47.5853 17.3139 42.8449 18.0623 41.452C18.8107 40.0592 24.2541 39.6823 30.8933 43.2451L44.9865 50.808C54.9471 56.1531 64.8284 55.7647 67.9758 49.9069C69.4934 47.091 69.0738 43.675 67.141 40.2922ZM48.3842 44.4843L34.2911 36.9215C27.6495 33.3574 24.9587 28.617 25.7071 27.2241C26.4555 25.8313 31.8989 25.4544 38.5381 29.0172L52.6313 36.58C59.2741 40.1448 61.9648 44.8852 61.2158 46.2792C60.4668 47.6733 55.027 48.049 48.3842 44.4843Z" fill="#007AFF"/>
</g>
<defs>
<filter id="filter0_f_188_1525" x="0.378906" y="0.357788" width="86.1699" height="72.7865" filterUnits="userSpaceOnUse" color-interpolation-filters="sRGB">
<feFlood flood-opacity="0" result="BackgroundImageFix"/>
<feBlend mode="normal" in="SourceGraphic" in2="BackgroundImageFix" result="shape"/>
<feGaussianBlur stdDeviation="5" result="effect1_foregroundBlur_188_1525"/>
</filter>
</defs>
</svg>
