<svg width="57" height="43" viewBox="0 0 57 43" fill="none" xmlns="http://www.w3.org/2000/svg">
<path id="Vector" d="M47.9068 26.5996C51.1743 26.7463 53.891 25.7529 55.4161 23.5434C58.5827 18.9474 55.0796 11.4207 47.2727 6.03923L38.9863 0.327304L35.5639 5.28604L43.8502 10.998C49.0592 14.5886 50.8624 18.7926 50.1086 19.8848C49.3548 20.977 44.7794 20.7855 39.5723 17.1961L28.521 9.57831C20.7113 4.19492 12.4323 3.59998 9.2613 8.19433C7.73692 10.403 7.76816 13.2906 9.0708 16.2941C5.79804 16.1451 3.08594 17.1417 1.56092 19.3512C-1.60941 23.9447 1.88994 31.4688 9.69777 36.8509L17.985 42.5634L21.4075 37.6047L13.1202 31.8921C7.9122 28.3021 6.10895 24.0981 6.86278 23.0059C7.61661 21.9137 12.192 22.1052 17.3982 25.694L28.4494 33.3118C36.2601 38.6958 44.5381 39.2901 47.7085 34.6967C49.2363 32.4891 49.2041 29.6008 47.9068 26.5996ZM31.8719 28.3531L20.8206 20.7352C15.6126 17.1452 13.8093 12.9412 14.5632 11.849C15.317 10.7568 19.8924 10.9483 25.0985 14.537L36.1498 22.1549C41.3588 25.7455 43.162 29.9495 42.4076 31.0427C41.6531 32.1358 37.0809 31.9437 31.8719 28.3531Z" fill="#007AFF"/>
</svg>
