<svg width="85" height="80" viewBox="0 0 85 80" fill="none" xmlns="http://www.w3.org/2000/svg">
<g id="Group 662">
<g id="Vector" filter="url(#filter0_f_158_593)">
<path d="M30.9128 31.5134C28.8915 30.6804 27.0101 30.8454 25.6569 32.2083C22.8456 35.0443 23.6871 41.604 27.6118 47.4629L31.7775 53.6815L34.8144 50.6229L30.6487 44.4043C28.0301 40.4951 27.6562 36.865 28.3251 36.1914C28.994 35.5177 31.827 36.6735 34.4447 40.5813L40.0004 48.8749C43.9265 54.7358 49.008 57.0182 51.8218 54.1844C53.1744 52.8221 53.6743 50.5948 53.3982 47.9982C55.4225 48.8342 57.3015 48.6657 58.6547 47.3028C61.4678 44.4696 60.6282 37.9127 56.7031 32.0531L52.5369 25.8338L49.5 28.8923L53.6662 35.1117C56.2843 39.0201 56.6582 42.6502 55.9893 43.3239C55.3204 43.9976 52.4874 42.8418 49.8702 38.9347L44.3145 30.6411C40.3879 24.7794 35.3068 22.4978 32.4937 25.331C31.139 26.6918 30.6397 28.9198 30.9128 31.5134ZM41.2776 33.6997L46.8333 41.9933C49.4515 45.9017 49.8253 49.5318 49.1564 50.2055C48.4875 50.8792 45.6545 49.7234 43.0373 45.8163L37.4816 37.5227C34.863 33.6135 34.4891 29.9834 35.1585 29.3092C35.828 28.6349 38.659 29.7905 41.2776 33.6997Z" fill="#B67420"/>
</g>
<path id="Vector_2" d="M34.9579 34.4794C33.6639 33.9461 32.4596 34.0517 31.5933 34.9241C29.7936 36.7397 30.3323 40.939 32.8448 44.6896L35.5115 48.6705L37.4556 46.7125L34.7889 42.7316C33.1125 40.2291 32.8732 37.9052 33.3014 37.474C33.7296 37.0427 35.5432 37.7826 37.2189 40.2842L40.7754 45.5935C43.2888 49.3454 46.5418 50.8065 48.343 48.9924C49.2089 48.1203 49.5289 46.6945 49.3522 45.0322C50.648 45.5674 51.8509 45.4595 52.7172 44.5871C54.5181 42.7734 53.9806 38.5759 51.4678 34.8248L48.8008 30.8435L46.8567 32.8014L49.5237 36.7828C51.1998 39.2848 51.4391 41.6087 51.0109 42.04C50.5827 42.4712 48.7691 41.7313 47.0937 39.2302L43.5372 33.9209C41.0235 30.1685 37.7708 28.7079 35.9699 30.5216C35.1027 31.3927 34.7831 32.819 34.9579 34.4794ZM41.5931 35.8789L45.1496 41.1881C46.8256 43.6902 47.065 46.014 46.6368 46.4453C46.2086 46.8766 44.395 46.1367 42.7195 43.6355L39.163 38.3262C37.4867 35.8237 37.2473 33.4999 37.6759 33.0683C38.1045 32.6366 39.9167 33.3764 41.5931 35.8789Z" fill="#FFEFDA"/>
</g>
<defs>
<filter id="filter0_f_158_593" x="0" y="0.119141" width="84.3135" height="79.2773" filterUnits="userSpaceOnUse" color-interpolation-filters="sRGB">
<feFlood flood-opacity="0" result="BackgroundImageFix"/>
<feBlend mode="normal" in="SourceGraphic" in2="BackgroundImageFix" result="shape"/>
<feGaussianBlur stdDeviation="12" result="effect1_foregroundBlur_158_593"/>
</filter>
</defs>
</svg>
