<svg width="87" height="74" viewBox="0 0 87 74" fill="none" xmlns="http://www.w3.org/2000/svg">
<g id="Vector" opacity="0.5" filter="url(#filter0_f_188_1635)">
<path d="M67.3608 40.2006C71.2494 39.9433 74.3353 38.4085 75.8494 35.5907C78.992 29.7304 73.8494 21.2795 63.8936 15.9369L53.3264 10.2663L49.9286 16.5899L60.4958 22.2606C67.1386 25.8253 69.8294 30.5657 69.081 31.9586C68.3326 33.3514 62.8892 33.7283 56.2488 30.1649L42.1556 22.602C32.1962 17.2575 22.3137 17.6453 19.1656 23.5043C17.6523 26.3209 18.0707 29.7362 20.0101 33.1211C16.1148 33.3764 13.0349 34.9144 11.5208 37.7322C8.37339 43.59 13.5113 52.0382 23.4683 57.3815L34.0366 63.0528L37.4344 56.7291L26.866 51.0578C20.2244 47.4937 17.5337 42.7533 18.2821 41.3605C19.0304 39.9676 24.4739 39.5908 31.1131 43.1536L45.2062 50.7164C55.1668 56.0616 65.0481 55.6731 68.1956 49.8153C69.7132 46.9995 69.2935 43.5834 67.3608 40.2006ZM48.604 44.3928L34.5108 36.8299C27.8692 33.2658 25.1785 28.5254 25.9269 27.1326C26.6752 25.7397 32.1187 25.3628 38.7579 28.9256L52.851 36.4885C59.4938 40.0532 62.1846 44.7936 61.4355 46.1877C60.6865 47.5817 55.2467 47.9575 48.604 44.3928Z" fill="#007AFF"/>
</g>
<defs>
<filter id="filter0_f_188_1635" x="0.598633" y="0.266235" width="86.1699" height="72.7865" filterUnits="userSpaceOnUse" color-interpolation-filters="sRGB">
<feFlood flood-opacity="0" result="BackgroundImageFix"/>
<feBlend mode="normal" in="SourceGraphic" in2="BackgroundImageFix" result="shape"/>
<feGaussianBlur stdDeviation="5" result="effect1_foregroundBlur_188_1635"/>
</filter>
</defs>
</svg>
