<svg width="80" height="80" viewBox="0 0 80 80" fill="none" xmlns="http://www.w3.org/2000/svg">
<g id="Group 653">
<path id="Vector" d="M72.3876 28.3862C77.1366 25.416 80 21.373 80 16.7733C79.9922 7.211 67.7305 0 51.4888 0H34.2497V10.3228H51.4888C62.3257 10.3228 68.9582 14.4996 68.9582 16.7733C68.9582 19.047 62.3218 23.2257 51.4888 23.2257H28.4975C12.25 23.2257 0 30.4367 0 40.001C0 44.5988 2.85366 48.6418 7.61236 51.6119C2.85366 54.584 0 58.627 0 63.2267C0 72.789 12.2539 80 28.4975 80H45.7385V69.6772H28.4975C17.6626 69.6772 11.0301 65.5004 11.0301 63.2267C11.0301 60.953 17.6665 56.7743 28.4975 56.7743H51.4888C67.7383 56.7743 79.9863 49.5633 79.9863 40.001C79.9922 35.4012 77.1366 31.3582 72.3876 28.3862ZM51.4888 46.4515H28.4975C17.6626 46.4515 11.0301 42.2747 11.0301 40.001C11.0301 37.7273 17.6665 33.5485 28.4975 33.5485H51.4888C62.3257 33.5485 68.9582 37.7253 68.9582 40.001C68.9582 42.2766 62.3257 46.4515 51.4888 46.4515Z" fill="black"/>
<g id="Mask group">
<mask id="mask0_122_289" style="mask-type:alpha" maskUnits="userSpaceOnUse" x="0" y="0" width="80" height="80">
<path id="Vector_2" d="M72.3876 28.3862C77.1366 25.416 80 21.373 80 16.7733C79.9922 7.211 67.7305 0 51.4888 0H34.2497V10.3228H51.4888C62.3257 10.3228 68.9582 14.4996 68.9582 16.7733C68.9582 19.047 62.3218 23.2257 51.4888 23.2257H28.4975C12.25 23.2257 0 30.4367 0 40.001C0 44.5988 2.85366 48.6418 7.61236 51.6119C2.85366 54.584 0 58.627 0 63.2267C0 72.789 12.2539 80 28.4975 80H45.7385V69.6772H28.4975C17.6626 69.6772 11.0301 65.5004 11.0301 63.2267C11.0301 60.953 17.6665 56.7743 28.4975 56.7743H51.4888C67.7383 56.7743 79.9863 49.5633 79.9863 40.001C79.9922 35.4012 77.1366 31.3582 72.3876 28.3862ZM51.4888 46.4515H28.4975C17.6626 46.4515 11.0301 42.2747 11.0301 40.001C11.0301 37.7273 17.6665 33.5485 28.4975 33.5485H51.4888C62.3257 33.5485 68.9582 37.7253 68.9582 40.001C68.9582 42.2766 62.3257 46.4515 51.4888 46.4515Z" fill="black"/>
</mask>
<g mask="url(#mask0_122_289)">
<rect id="Rectangle 2553" x="15.6863" y="-16.4705" width="86.2745" height="46.2745" fill="#0179FE"/>
<ellipse id="Ellipse 12" cx="36.8627" cy="39.6079" rx="42.3529" ry="20" fill="black"/>
</g>
</g>
</g>
</svg>
