<svg width="78" height="93" viewBox="0 0 78 93" fill="none" xmlns="http://www.w3.org/2000/svg">
<g id="Group 658">
<g id="Vector" filter="url(#filter0_f_158_581)">
<path d="M48.331 34.9576C49.5224 32.6881 49.8638 30.3379 49.094 28.3326C47.4908 24.1655 41.9243 23.5381 36.1496 26.8712L30.0202 30.4089L31.7479 34.9093L37.8773 31.3715C41.7303 29.1476 44.7876 29.6074 45.1681 30.5986C45.5486 31.5898 43.8884 34.7735 40.0368 36.9967L31.8623 41.7149C26.0855 45.0492 22.9369 50.7068 24.5376 54.8764C25.3071 56.8809 26.9984 58.0578 29.1875 58.3761C27.9929 60.6484 27.655 62.9966 28.4248 65.0019C30.0253 69.1707 35.589 69.7996 41.3644 66.4662L47.4944 62.928L45.7667 58.4277L39.6367 61.9658C35.7844 64.1894 32.7271 63.7296 32.3466 62.7383C31.966 61.7471 33.6262 58.5634 37.4772 56.3407L45.6517 51.6224C51.4292 48.2878 54.5771 42.6305 52.9767 38.4618C52.2089 36.4552 50.517 35.2787 48.331 34.9576ZM43.924 47.1221L35.7495 51.8404C31.8971 54.0639 28.8399 53.6041 28.4594 52.6128C28.0788 51.6216 29.739 48.4379 33.59 46.2152L41.7645 41.497C45.6175 39.273 48.6748 39.7328 49.0556 40.7249C49.4365 41.717 47.7771 44.8982 43.924 47.1221Z" fill="#B67420"/>
</g>
<path id="Vector_2" d="M44.8865 39.171C45.6492 37.7182 45.8678 36.2137 45.375 34.93C44.3487 32.2623 40.7852 31.8607 37.0884 33.9944L33.1647 36.2592L34.2707 39.1401L38.1944 36.8754C40.661 35.4517 42.6181 35.746 42.8617 36.3806C43.1053 37.0151 42.0426 39.0532 39.5769 40.4764L34.3439 43.4968C30.6458 45.6313 28.6302 49.2531 29.6549 51.9223C30.1475 53.2055 31.2302 53.9589 32.6316 54.1627C31.8669 55.6173 31.6505 57.1205 32.1434 58.4042C33.1679 61.0729 36.7296 61.4756 40.4268 59.3416L44.351 57.0766L43.245 54.1957L39.3208 56.4607C36.8547 57.8841 34.8975 57.5897 34.6539 56.9552C34.4103 56.3206 35.4731 54.2826 37.9383 52.8597L43.1713 49.8392C46.8699 47.7045 48.885 44.083 47.8605 41.4143C47.369 40.1298 46.2859 39.3766 44.8865 39.171ZM42.0653 46.9583L36.8323 49.9787C34.3662 51.4022 32.4091 51.1078 32.1655 50.4732C31.9219 49.8387 32.9846 47.8006 35.4499 46.3777L40.6829 43.3573C43.1495 41.9336 45.1066 42.228 45.3504 42.8631C45.5942 43.4982 44.5319 45.5346 42.0653 46.9583Z" fill="#FFEFDA"/>
</g>
<defs>
<filter id="filter0_f_158_581" x="0.12207" y="0.734863" width="77.27" height="91.8671" filterUnits="userSpaceOnUse" color-interpolation-filters="sRGB">
<feFlood flood-opacity="0" result="BackgroundImageFix"/>
<feBlend mode="normal" in="SourceGraphic" in2="BackgroundImageFix" result="shape"/>
<feGaussianBlur stdDeviation="12" result="effect1_foregroundBlur_158_581"/>
</filter>
</defs>
</svg>
