<svg width="97" height="141" viewBox="0 0 97 141" fill="none" xmlns="http://www.w3.org/2000/svg">
<path id="Vector" d="M62.594 2.37724C59.394 3.97723 55.2606 7.31058 52.994 10.6439C48.994 16.1106 43.5273 30.7773 43.5273 35.9772C43.5273 37.3106 43.2606 38.5106 42.8606 38.5106C42.4606 38.5106 38.3273 35.8439 33.6606 32.6439C19.6606 23.0439 10.594 23.4439 2.99398 33.5772C-3.40602 42.1106 0.860645 66.7773 11.9273 84.9106C19.5273 97.5773 49.394 126.511 57.5273 129.177C60.8606 130.244 62.4606 131.844 63.5273 135.311C65.5273 141.177 70.194 142.644 75.2607 138.911C79.5273 135.844 81.1273 131.044 89.5273 95.1773C99.1273 54.5106 99.394 27.9772 90.4606 11.4439C84.594 0.643921 74.194 -2.82275 62.594 2.37724ZM77.394 18.3773C83.794 31.0439 83.5273 52.5106 76.4606 78.5106C68.3273 108.644 62.994 126.511 62.0606 126.511C60.594 126.511 41.6606 106.111 32.994 95.1773C23.5273 83.3106 18.3273 73.7106 14.3273 60.6439C10.994 49.8439 10.7273 42.1106 13.6606 39.3106C16.194 36.7773 16.0606 36.7773 20.7273 39.0439C25.794 41.7106 34.0606 51.0439 40.0606 60.7773C45.2606 69.4439 48.594 71.5772 54.7273 69.9772C58.994 68.9106 59.6606 66.3773 60.194 49.4439C60.7273 33.4439 63.2606 23.3106 68.3273 17.3106C72.0606 12.7773 74.7273 13.0439 77.394 18.3773Z" fill="#0179FE"/>
</svg>
