<svg width="443" height="568" viewBox="0 0 443 568" fill="none" xmlns="http://www.w3.org/2000/svg">
<g opacity="0.2" filter="url(#filter0_f_138_503)">
<path d="M360.328 366.869C383.163 365.357 401.284 356.338 410.175 339.781C428.63 305.346 398.431 255.689 339.967 224.296L277.914 190.975L257.962 228.133L320.015 261.454C359.023 282.4 374.824 310.254 370.429 318.439C366.035 326.623 334.069 328.838 295.075 307.899L212.316 263.46C153.832 232.055 95.7994 234.334 77.313 268.761C68.426 285.312 70.8835 305.38 82.2719 325.27C59.3979 326.77 41.3114 335.807 32.4207 352.364C13.9381 386.784 44.1091 436.426 102.579 467.823L164.639 501.148L184.592 463.99L122.532 430.665C83.5306 409.723 67.7297 381.868 72.1244 373.684C76.5191 365.5 108.484 363.285 147.471 384.22L230.23 428.659C288.721 460.067 346.747 457.785 365.23 423.365C374.142 406.819 371.677 386.746 360.328 366.869ZM250.183 391.502L167.424 347.063C128.423 326.12 112.622 298.265 117.017 290.081C121.411 281.897 153.377 279.682 192.364 300.617L275.123 345.056C314.131 366.003 329.932 393.857 325.533 402.049C321.135 410.24 289.191 412.448 250.183 391.502Z" fill="#004896"/>
</g>
<path d="M360.328 242.094C383.163 240.582 401.284 231.563 410.175 215.006C428.63 180.571 398.431 130.914 339.967 99.5211L277.914 66.2003L257.962 103.358L320.015 136.679C359.023 157.625 374.824 185.48 370.429 193.664C366.035 201.848 334.069 204.063 295.075 183.124L212.316 138.685C153.832 107.281 95.7994 109.559 77.313 143.987C68.426 160.537 70.8835 180.605 82.2719 200.495C59.3979 201.995 41.3114 211.032 32.4207 227.589C13.9381 262.01 44.1091 311.651 102.579 343.048L164.639 376.373L184.592 339.215L122.532 305.89C83.5306 284.948 67.7297 257.093 72.1244 248.909C76.5191 240.725 108.484 238.51 147.471 259.445L230.23 303.884C288.721 335.292 346.747 333.01 365.23 298.59C374.142 282.044 371.677 261.971 360.328 242.094ZM250.183 266.727L167.424 222.288C128.423 201.345 112.622 173.491 117.017 165.306C121.411 157.122 153.377 154.907 192.364 175.842L275.123 220.281C314.131 241.228 329.932 269.082 325.533 277.274C321.135 285.465 289.191 287.673 250.183 266.727Z" fill="#007AFF"/>
<defs>
<filter id="filter0_f_138_503" x="9.00623" y="172.975" width="424.567" height="346.172" filterUnits="userSpaceOnUse" color-interpolation-filters="sRGB">
<feFlood flood-opacity="0" result="BackgroundImageFix"/>
<feBlend mode="normal" in="SourceGraphic" in2="BackgroundImageFix" result="shape"/>
<feGaussianBlur stdDeviation="9" result="effect1_foregroundBlur_138_503"/>
</filter>
</defs>
</svg>
