<svg width="70" height="70" viewBox="0 0 70 70" fill="none" xmlns="http://www.w3.org/2000/svg">
<rect width="70" height="70" fill="#DEDEDE"/>
<g clip-path="url(#clip0_0_1)">
<rect width="1920" height="7582" transform="translate(-925 -152)" fill="#F9FBFF"/>
<path d="M63.3392 24.8379C67.4945 22.239 70 18.7014 70 14.6766C69.9932 6.30962 59.2641 0 45.0527 0H29.9685V9.03242H45.0527C54.535 9.03242 60.3384 12.6872 60.3384 14.6766C60.3384 16.6661 54.5316 20.3225 45.0527 20.3225H24.9353C10.7188 20.3225 0 26.6322 0 35.0009C0 39.0239 2.49695 42.5615 6.66081 45.1604C2.49695 47.761 0 51.2986 0 55.3234C0 63.6904 10.7222 70 24.9353 70H40.0212V60.9676H24.9353C15.4548 60.9676 9.65134 57.3129 9.65134 55.3234C9.65134 53.3339 15.4582 49.6775 24.9353 49.6775H45.0527C59.271 49.6775 69.988 43.3679 69.988 35.0009C69.9932 30.9761 67.4945 27.4385 63.3392 24.8379ZM45.0527 40.6451H24.9353C15.4548 40.6451 9.65134 36.9903 9.65134 35.0009C9.65134 33.0114 15.4582 29.3549 24.9353 29.3549H45.0527C54.535 29.3549 60.3384 33.0097 60.3384 35.0009C60.3384 36.992 54.535 40.6451 45.0527 40.6451Z" fill="#007AFF"/>
</g>
<defs>
<clipPath id="clip0_0_1">
<rect width="1920" height="7582" fill="white" transform="translate(-925 -152)"/>
</clipPath>
</defs>
</svg>
