<svg width="80" height="81" viewBox="0 0 80 81" fill="none" xmlns="http://www.w3.org/2000/svg">
<g id="Group 653">
<path id="Vector" d="M72.3876 29.017C77.1366 26.0469 80 22.0039 80 17.4041C79.9922 7.84186 67.7305 0.630859 51.4888 0.630859H34.2497V10.9536H51.4888C62.3257 10.9536 68.9582 15.1305 68.9582 17.4041C68.9582 19.6778 62.3218 23.8566 51.4888 23.8566H28.4975C12.25 23.8566 0 31.0676 0 40.6318C0 45.2296 2.85366 49.2726 7.61236 52.2428C2.85366 55.2149 0 59.2578 0 63.8576C0 73.4199 12.2539 80.6309 28.4975 80.6309H45.7385V70.3081H28.4975C17.6626 70.3081 11.0301 66.1313 11.0301 63.8576C11.0301 61.5839 17.6665 57.4051 28.4975 57.4051H51.4888C67.7383 57.4051 79.9863 50.1941 79.9863 40.6318C79.9922 36.0321 77.1366 31.9891 72.3876 29.017ZM51.4888 47.0823H28.4975C17.6626 47.0823 11.0301 42.9055 11.0301 40.6318C11.0301 38.3581 17.6665 34.1794 28.4975 34.1794H51.4888C62.3257 34.1794 68.9582 38.3562 68.9582 40.6318C68.9582 42.9075 62.3257 47.0823 51.4888 47.0823Z" fill="black"/>
<g id="Mask group">
<mask id="mask0_163_1907" style="mask-type:alpha" maskUnits="userSpaceOnUse" x="0" y="0" width="80" height="81">
<path id="Vector_2" d="M72.3876 29.017C77.1366 26.0469 80 22.0039 80 17.4041C79.9922 7.84186 67.7305 0.630859 51.4888 0.630859H34.2497V10.9536H51.4888C62.3257 10.9536 68.9582 15.1305 68.9582 17.4041C68.9582 19.6778 62.3218 23.8566 51.4888 23.8566H28.4975C12.25 23.8566 0 31.0676 0 40.6318C0 45.2296 2.85366 49.2726 7.61236 52.2428C2.85366 55.2149 0 59.2578 0 63.8576C0 73.4199 12.2539 80.6309 28.4975 80.6309H45.7385V70.3081H28.4975C17.6626 70.3081 11.0301 66.1313 11.0301 63.8576C11.0301 61.5839 17.6665 57.4051 28.4975 57.4051H51.4888C67.7383 57.4051 79.9863 50.1941 79.9863 40.6318C79.9922 36.0321 77.1366 31.9891 72.3876 29.017ZM51.4888 47.0823H28.4975C17.6626 47.0823 11.0301 42.9055 11.0301 40.6318C11.0301 38.3581 17.6665 34.1794 28.4975 34.1794H51.4888C62.3257 34.1794 68.9582 38.3562 68.9582 40.6318C68.9582 42.9075 62.3257 47.0823 51.4888 47.0823Z" fill="black"/>
</mask>
<g mask="url(#mask0_163_1907)">
<rect id="Rectangle 2553" x="15.6863" y="-15.8398" width="86.2745" height="46.2745" fill="#0179FE"/>
<ellipse id="Ellipse 12" cx="36.8627" cy="40.2388" rx="42.3529" ry="20" fill="black"/>
</g>
</g>
</g>
</svg>
